<svg width="493" height="140" viewBox="0 0 493 140" fill="none" xmlns="http://www.w3.org/2000/svg">
<path d="M153.5 18.5004L153.792 19.4569L153.5 18.5004ZM378.5 61.4998L379.244 60.8312L378.5 61.4998ZM-0.780868 20.6252C1.62553 23.6332 5.40108 25.9532 10.1097 27.7285C14.8285 29.5076 20.5645 30.7694 26.987 31.6102C39.8327 33.2917 55.5547 33.3047 71.6646 32.3137C103.877 30.3321 137.833 24.3229 153.792 19.4569L153.208 17.5439C137.442 22.3515 103.648 28.3423 71.5418 30.3174C55.4923 31.3047 39.9127 31.2851 27.2466 29.6271C20.9133 28.798 15.3408 27.5633 10.8152 25.8571C6.2794 24.1469 2.87447 21.9928 0.780868 19.3758L-0.780868 20.6252ZM153.792 19.4569C192.567 7.63358 231.911 -0.1956 269.877 4.17783C307.805 8.54677 344.42 25.1002 377.756 62.1685L379.244 60.8312C345.58 23.3996 308.517 6.61565 270.106 2.19097C231.734 -2.22922 192.078 5.69181 153.208 17.5439L153.792 19.4569ZM377.756 62.1685C417.508 106.37 440.738 125.745 456.728 133.974C472.832 142.262 481.692 139.246 492.024 139L491.976 137C481.308 137.254 473.166 140.185 457.644 132.196C442.008 124.149 418.988 105.025 379.244 60.8312L377.756 62.1685Z" fill="#F7F6F6"/>
<circle cx="75" cy="30" r="12" fill="#EFEFEE"/>
</svg>
