<svg width="42" height="41" viewBox="0 0 42 41" fill="none" xmlns="http://www.w3.org/2000/svg">
<g id="Group">
<path id="Vector" d="M41.4173 20.5C41.4173 19.3954 40.5033 18.5 39.3756 18.5C38.248 18.5 37.334 19.3954 37.334 20.5H41.4173ZM21.0006 4.5C22.1283 4.5 23.0423 3.60457 23.0423 2.5C23.0423 1.39543 22.1283 0.5 21.0006 0.5V4.5ZM36.3131 36.5H5.68815V40.5H36.3131V36.5ZM4.66732 35.5V5.5H0.583984V35.5H4.66732ZM37.334 20.5V35.5H41.4173V20.5H37.334ZM5.68815 4.5H21.0006V0.5H5.68815V4.5ZM5.68815 36.5C5.12436 36.5 4.66732 36.0523 4.66732 35.5H0.583984C0.583984 38.2614 2.86919 40.5 5.68815 40.5V36.5ZM36.3131 40.5C39.1321 40.5 41.4173 38.2614 41.4173 35.5H37.334C37.334 36.0523 36.877 36.5 36.3131 36.5V40.5ZM4.66732 5.5C4.66732 4.94772 5.12435 4.5 5.68815 4.5V0.5C2.8692 0.5 0.583984 2.73857 0.583984 5.5H4.66732Z" fill="#D9D9D9"/>
<path id="Vector_2" d="M2.625 31.4996L13.5409 21.6976C14.3022 21.0139 15.4649 20.9949 16.2491 21.6534L29.1667 32.4996" stroke="#D9D9D9" stroke-width="3" stroke-linecap="round" stroke-linejoin="round"/>
<path id="Vector_3" d="M25.084 27.4999L29.9569 22.7264C30.6753 22.0227 31.8127 21.9435 32.6256 22.5407L39.3756 27.4999" stroke="#D9D9D9" stroke-width="3" stroke-linecap="round" stroke-linejoin="round"/>
<path id="Vector_4" d="M27.125 8.5H39.375" stroke="#D9D9D9" stroke-width="3" stroke-linecap="round" stroke-linejoin="round"/>
<path id="Vector_5" d="M33.25 2.5V14.5" stroke="#D9D9D9" stroke-width="3" stroke-linecap="round" stroke-linejoin="round"/>
</g>
</svg>
