<svg width="273" height="326" viewBox="0 0 273 326" fill="none" xmlns="http://www.w3.org/2000/svg">
<g id="paw">
<path id="Vector" d="M21.7405 132.051C28.0147 122.451 45.2738 121.628 60.4124 130.345C75.4789 138.998 82.7529 153.735 76.5509 163.398C70.4125 172.988 53.0898 173.884 37.8877 165.239C22.7577 156.658 15.6107 141.777 21.7405 132.051ZM67.1941 80.4338C76.1307 73.0509 91.7327 78.3306 102.286 92.1094C112.72 106.168 114.086 123.393 105.285 130.767C96.4208 138.214 80.8824 132.862 70.4567 118.939C59.8952 105.024 58.529 87.7995 67.1941 80.4338ZM20.9378 199.916C24.6475 188.571 40.9261 183.039 57.2651 187.045C73.5027 191.603 83.8336 204.033 80.1874 215.305C76.5412 226.578 60.3984 232.101 44.0422 227.824C27.686 223.546 17.4101 210.908 20.9378 199.916ZM135.366 69.9715C145.824 65.0819 159.66 73.677 165.972 89.3608C172.284 105.045 168.847 121.756 158.126 126.799C147.405 131.842 133.768 123.166 127.194 107.635C121.153 91.9338 124.582 75.0863 135.366 69.9715ZM202.572 150.557C209.612 156.244 212.543 168.054 209.891 176.741C204.432 194.876 178.682 199.374 166.031 213.74C153.381 228.106 152.554 254.807 134.941 261.855C125.046 265.959 111.275 262.676 104.305 254.872C94.6925 244.1 100.296 226.092 99.1662 211.511C97.9508 192.368 85.1773 168.302 97.9551 153.792C110.669 139.354 136.25 148.294 155.3 147.766C171.164 147.508 190.36 140.701 202.572 150.557Z" fill="#757971"/>
</g>
</svg>
