<svg width="282" height="232" viewBox="0 0 282 232" fill="none" xmlns="http://www.w3.org/2000/svg">
<g id="paw">
<path id="Vector" d="M84.9792 65.4727C95.5639 61.0596 110.302 70.0793 117.923 85.7977C125.521 101.423 123.255 117.7 112.694 122.206C102.226 126.689 87.3956 117.693 79.6806 101.999C71.9897 86.3973 74.4424 70.0722 84.9792 65.4727ZM151.585 48.3279C163.126 47.2444 173.063 60.3803 174.047 77.7081C174.775 95.2009 166.224 110.215 154.8 111.368C143.283 112.545 133.439 99.3848 132.642 82.009C131.727 64.5641 140.278 49.5497 151.585 48.3279ZM46.1713 121.153C55.616 113.855 72.1892 118.429 83.4515 130.926C94.32 143.822 95.8784 159.909 86.5268 167.183C77.1752 174.457 60.7192 169.952 49.5952 157.221C38.4713 144.49 37.0752 128.262 46.1713 121.153ZM213.851 77.991C225.249 79.8248 231.862 94.7103 228.267 111.23C224.673 127.75 212.437 139.64 200.735 137.785C189.034 135.93 182.631 121.09 185.922 104.549C189.751 88.1675 202.056 76.16 213.851 77.991ZM224.143 182.417C226.77 191.078 222.556 202.492 215.48 208.188C200.772 220.118 176.946 209.366 158.408 214.137C139.87 218.909 124.179 240.529 105.65 236.459C95.1595 234.292 85.6145 223.836 84.2358 213.464C82.3398 199.152 97.0963 187.407 104.357 174.712C114.111 158.196 117.072 131.112 135.796 126.292C154.427 121.496 170.56 143.268 186.613 153.538C199.879 162.242 219.583 167.4 224.143 182.417Z" fill="#C2A281"/>
</g>
</svg>
