<svg width="20" height="20" viewBox="0 0 20 20" fill="none" xmlns="http://www.w3.org/2000/svg">
<g id="paw">
<path id="Vector" d="M6.95858 2.49984C7.94191 2.35817 8.98358 3.43317 9.28358 4.91651C9.58358 6.39151 9.04191 7.70817 8.05858 7.85817C7.08358 8.00817 6.03358 6.93317 5.72525 5.44984C5.41691 3.97484 5.97525 2.65817 6.95858 2.49984ZM12.9169 2.49984C13.9086 2.65817 14.4586 3.97484 14.1669 5.44984C13.8502 6.93317 12.8086 8.00817 11.8252 7.85817C10.8336 7.70817 10.2919 6.39151 10.6002 4.91651C10.9002 3.43317 11.9419 2.35817 12.9169 2.49984ZM2.50025 6.33317C3.45025 5.92484 4.74191 6.66651 5.41691 7.95817C6.05025 9.27484 5.83358 10.6582 4.89191 11.0665C3.95025 11.4748 2.66691 10.7415 2.00858 9.43317C1.35025 8.12484 1.58358 6.73317 2.50025 6.33317ZM17.5002 6.33317C18.4169 6.73317 18.6502 8.12484 17.9919 9.43317C17.3336 10.7415 16.0502 11.4748 15.1086 11.0665C14.1669 10.6582 13.9502 9.27484 14.5836 7.95817C15.2586 6.66651 16.5502 5.92484 17.5002 6.33317ZM16.1086 15.3165C16.1419 16.0998 15.5419 16.9665 14.8252 17.2915C13.3336 17.9748 11.5669 16.5582 9.90858 16.5582C8.25025 16.5582 6.46691 18.0332 5.00025 17.2915C4.16691 16.8832 3.59191 15.7998 3.70025 14.8998C3.85025 13.6582 5.34191 12.9915 6.22525 12.0832C7.40025 10.9082 8.23358 8.69984 9.90858 8.69984C11.5752 8.69984 12.4586 10.8748 13.5836 12.0832C14.5086 13.0998 16.0502 13.9582 16.1086 15.3165Z" fill="#020305"/>
</g>
</svg>
