<svg width="20" height="20" viewBox="0 0 20 20" fill="none" xmlns="http://www.w3.org/2000/svg">
<g id="size">
<path id="Vector" fill-rule="evenodd" clip-rule="evenodd" d="M15.3331 4.06641C15.4922 4.06641 15.6448 4.12962 15.7573 4.24214C15.8699 4.35466 15.9331 4.50728 15.9331 4.66641V9.99974C15.9331 10.1589 15.8699 10.3115 15.7573 10.424C15.6448 10.5365 15.4922 10.5997 15.3331 10.5997C15.1739 10.5997 15.0213 10.5365 14.9088 10.424C14.7963 10.3115 14.7331 10.1589 14.7331 9.99974V6.11441L6.11441 14.7331H9.99974C10.1589 14.7331 10.3115 14.7963 10.424 14.9088C10.5365 15.0213 10.5997 15.1739 10.5997 15.3331C10.5997 15.4922 10.5365 15.6448 10.424 15.7573C10.3115 15.8699 10.1589 15.9331 9.99974 15.9331H4.66641C4.50728 15.9331 4.35466 15.8699 4.24214 15.7573C4.12962 15.6448 4.06641 15.4922 4.06641 15.3331V9.99974C4.06641 9.92095 4.08193 9.84293 4.11208 9.77013C4.14223 9.69733 4.18643 9.63119 4.24214 9.57548C4.29786 9.51976 4.364 9.47556 4.4368 9.44541C4.50959 9.41526 4.58761 9.39974 4.66641 9.39974C4.7452 9.39974 4.82322 9.41526 4.89602 9.44541C4.96881 9.47556 5.03496 9.51976 5.09067 9.57548C5.14639 9.63119 5.19058 9.69733 5.22073 9.77013C5.25089 9.84293 5.26641 9.92095 5.26641 9.99974V13.8851L13.8851 5.26641H9.99974C9.84061 5.26641 9.688 5.20319 9.57548 5.09067C9.46295 4.97815 9.39974 4.82554 9.39974 4.66641C9.39974 4.50728 9.46295 4.35466 9.57548 4.24214C9.688 4.12962 9.84061 4.06641 9.99974 4.06641H15.3331Z" fill="#020305"/>
</g>
</svg>
