<svg width="20" height="20" viewBox="0 0 20 20" fill="none" xmlns="http://www.w3.org/2000/svg">
<g id="mail">
<path id="Vector" d="M4.37435 3.33301H15.6243C17.0685 3.33301 18.2487 4.46338 18.3284 5.88766L18.3327 6.04134V13.958C18.3327 15.4022 17.2023 16.5823 15.778 16.6621L15.6243 16.6663H4.37435C2.93016 16.6663 1.74997 15.5359 1.6703 14.1117L1.66602 13.958V6.04134C1.66602 4.59715 2.79639 3.41697 4.22067 3.33729L4.37435 3.33301ZM17.0827 7.81051L10.2904 11.3861C10.1343 11.4683 9.95193 11.48 9.78835 11.4213L9.70827 11.3861L2.91602 7.81134V13.958C2.91602 14.7232 3.50527 15.3507 4.25474 15.4115L4.37435 15.4163H15.6243C16.3895 15.4163 17.017 14.8271 17.0778 14.0776L17.0827 13.958V7.81051ZM15.6243 4.58301H4.37435C3.60921 4.58301 2.98169 5.17227 2.92085 5.92173L2.91602 6.04134V6.39884L9.99935 10.1268L17.0827 6.39801V6.04134C17.0827 5.2762 16.4934 4.64868 15.7439 4.58784L15.6243 4.58301Z" fill="#020305"/>
</g>
</svg>
