<svg width="20" height="20" viewBox="0 0 20 20" fill="none" xmlns="http://www.w3.org/2000/svg">
<g id="More Horizontal">
<path id="Vector" d="M6.45768 10.0003C6.45768 10.8057 5.80477 11.4587 4.99935 11.4587C4.19393 11.4587 3.54102 10.8057 3.54102 10.0003C3.54102 9.19491 4.19393 8.54199 4.99935 8.54199C5.80477 8.54199 6.45768 9.19491 6.45768 10.0003ZM11.4577 10.0003C11.4577 10.8057 10.8048 11.4587 9.99935 11.4587C9.19393 11.4587 8.54102 10.8057 8.54102 10.0003C8.54102 9.19491 9.19393 8.54199 9.99935 8.54199C10.8048 8.54199 11.4577 9.19491 11.4577 10.0003ZM14.9993 11.4587C15.8048 11.4587 16.4577 10.8057 16.4577 10.0003C16.4577 9.19491 15.8048 8.54199 14.9993 8.54199C14.1939 8.54199 13.541 9.19491 13.541 10.0003C13.541 10.8057 14.1939 11.4587 14.9993 11.4587Z" fill="#212121"/>
</g>
</svg>
