<svg width="20" height="20" viewBox="0 0 20 20" fill="none" xmlns="http://www.w3.org/2000/svg">
<g id="telefon">
<path id="Vector" d="M5.88013 2.01504L6.85263 1.72191C7.95472 1.38971 9.13218 1.92656 9.60418 2.97642L10.3556 4.64786C10.7578 5.54271 10.5458 6.59439 9.82835 7.26351L8.5831 8.42476C8.54668 8.45867 8.5236 8.50451 8.5181 8.55401C8.4811 8.88492 8.70551 9.52942 9.22235 10.4247C9.59826 11.0758 9.93843 11.5323 10.228 11.7891C10.4298 11.968 10.5408 12.0067 10.5881 11.9926L12.2634 11.4804C13.2014 11.1937 14.2179 11.5356 14.7918 12.331L15.8591 13.8102C16.5308 14.7412 16.41 16.0256 15.5765 16.815L14.8378 17.5145C14.0408 18.2693 12.9062 18.5506 11.8489 18.2555C9.55385 17.6149 7.49608 15.6781 5.65286 12.4856C3.80706 9.28859 3.15941 6.53486 3.75645 4.22503C4.02967 3.16796 4.83478 2.33014 5.88013 2.01504ZM6.24088 3.21185C5.61367 3.40091 5.13061 3.90361 4.96667 4.53785C4.46447 6.48077 5.03851 8.92151 6.73539 11.8606C8.43001 14.7957 10.2541 16.5126 12.1849 17.0515C12.8193 17.2286 13.5001 17.0598 13.9783 16.6069L14.7169 15.9074C15.0958 15.5486 15.1508 14.9648 14.8454 14.5416L13.7782 13.0624C13.5173 12.7009 13.0552 12.5454 12.6288 12.6758L10.9494 13.1893C9.97468 13.4798 9.08993 12.6953 8.13985 11.0497C7.49959 9.94076 7.20118 9.08351 7.27582 8.41526C7.31449 8.06902 7.4758 7.74811 7.73056 7.51053L8.97585 6.34932C9.30201 6.04517 9.39835 5.56714 9.21551 5.16039L8.4641 3.48896C8.24956 3.01175 7.71433 2.76771 7.21338 2.91871L6.24088 3.21185Z" fill="#020305"/>
</g>
</svg>
